<svg width="32" height="32" viewBox="0 0 32 32" fill="none" xmlns="http://www.w3.org/2000/svg">
<path d="M27.2752 8.39722L29.0017 6.67076C33.4995 12.9232 32.9369 21.6905 27.3137 27.3137C21.6905 32.9369 12.9232 33.4995 6.67076 29.0017L8.39722 27.2752C13.6857 30.8496 20.9324 30.296 25.6142 25.6142C30.296 20.9324 30.8496 13.6857 27.2752 8.39722Z" fill="white"/>
<path d="M23.9249 4.94934L25.6437 3.23046C19.3738 -1.51709 10.4044 -1.03182 4.68629 4.68629C-1.03182 10.4044 -1.51709 19.3738 3.23046 25.6437L4.94934 23.9249C1.12944 18.6119 1.60828 11.1634 6.38585 6.38585C11.1634 1.60827 18.6119 1.12944 23.9249 4.94934Z" fill="white"/>
<path d="M3.52667 30.4462L30.7196 3.25331L29.02 1.55375L1.82711 28.7467L3.52667 30.4462Z" fill="white"/>
<path d="M16.6741 22.2482L22.2482 16.6741C23.1868 15.7354 23.1868 14.2136 22.2482 13.2749L21.8967 12.9235L12.9235 21.8967L13.275 22.2482C14.2136 23.1868 15.7355 23.1868 16.6741 22.2482Z" fill="white"/>
<path d="M10.0083 15.5823L15.5824 10.0082C16.521 9.06959 18.0428 9.06959 18.9815 10.0082L19.3329 10.3597L10.3597 19.3329L10.0083 18.9814C9.06962 18.0428 9.06962 16.521 10.0083 15.5823Z" fill="white"/>
</svg>